#!OML:ASF F:\VICON\USERDATA\INSTALL\rory3\rory3.ASF
:FULLY-SPECIFIED
:DEGREES
1
root 0.0998891 16.9917 -33.2133 2.05951 -2.52458 -5.0347
lowerback 20.9476 0.0676893 3.98799
upperback 0.51982 1.38894 2.96042
thorax -11.2003 0.528512 0.589518
lowerneck -20.4051 -2.90706 -1.65145
upperneck 13.6476 -3.67481 1.13776
head 7.58835 -1.72573 0.192732
rclavicle 1.0138e-014 1.31198e-014
rhumerus -45.1028 21.9804 -104.908
rradius 109.392
rwrist -19.9012
rhand -25.3352 42.2908
rfingers 7.12502
rthumb 1.18782 12.3143
lclavicle 1.0138e-014 1.31198e-014
lhumerus -49.2662 -9.87165 99.4789
lradius 102.312
lwrist 34.873
lhand -19.1257 7.12609
lfingers 7.12502
lthumb 7.18378 36.9842
rfemur -22.5255 6.43713 34.592
rtibia 53.5626
rfoot -22.9144 -11.4652
rtoes -3.3211
lfemur -22.1596 6.75075 -9.55506
ltibia 104.066
lfoot 7.76397 -12.7694
ltoes -2.50633
2
root 0.0725094 16.9551 -32.7891 2.8056 -3.75706 -5.03744
lowerback 20.1885 0.997132 3.61354
upperback 1.03801 2.41663 2.6638
thorax -10.174 1.04015 0.17959
lowerneck -22.8245 -3.24031 -0.898819
upperneck 13.8845 -4.32645 1.14908
head 8.06117 -1.97486 -0.0432794
rclavicle 9.54166e-015 2.06736e-014
rhumerus -42.0379 22.4314 -104.394
rradius 109.846
rwrist -19.4434
rhand -24.8908 44.7598
rfingers 7.12502
rthumb 1.61703 14.7862
lclavicle 9.54166e-015 2.06736e-014
lhumerus -49.1103 -11.0559 98.9338
lradius 102.286
lwrist 35.5533
lhand -19.14 7.67328
lfingers 7.12502
lthumb 7.17002 37.5318
rfemur -21.4279 7.86126 34.736
rtibia 53.6005
rfoot -23.6829 -12.0343
rtoes -5.63594
lfemur -25.1534 8.93412 -9.34402
ltibia 104.684
lfoot 6.98866 -12.2055
ltoes -1.14074
3
root 0.0859329 16.9495 -32.3024 3.93169 -2.14441 -4.91224
lowerback 18.3213 0.573856 4.02147
upperback 0.74127 1.86594 2.76138
thorax -9.4639 0.7772 0.23256
lowerneck -22.1488 -3.36686 -1.36112
upperneck 13.5791 -4.40033 1.38406
head 7.86383 -2.01785 0.112108
rclavicle -1.14301e-014 -2.54444e-014
rhumerus -41.3932 23.7004 -104.243
rradius 110.784
rwrist -19.1824
rhand -23.8364 48.7722
rfingers 7.12502
rthumb 2.63531 18.8088
lclavicle -1.14301e-014 -2.54444e-014
lhumerus -50.6645 -10.7938 99.1773
lradius 102.676
lwrist 36.3973
lhand -19.4746 8.4437
lfingers 7.12502
lthumb 6.84703 38.313
rfemur -20.6201 7.07957 34.719
rtibia 53.0348
rfoot -24.2686 -13.1641
rtoes -7.96004
lfemur -29.3207 8.1134 -9.81581
ltibia 104.799
lfoot 6.73839 -11.0068
ltoes -0.0993644
4
root 0.0879673 16.9517 -31.8562 4.29803 -1.28839 -4.90378
lowerback 18.207 0.491064 4.12114
upperback 0.548925 1.79613 2.90513
thorax -9.61703 0.739889 0.352787
lowerneck -22.4421 -3.53328 -1.7192
upperneck 13.8566 -4.54056 1.51297
head 8.01929 -2.08577 0.18665
rclavicle -7.7526e-015 -1.63003e-014
rhumerus -40.5013 24.5135 -103.859
rradius 112.022
rwrist -20.48
rhand -22.9551 50.1222
rfingers 7.12502
rthumb 3.48651 20.1709
lclavicle -7.7526e-015 -1.63003e-014
lhumerus -51.9182 -10.7227 99.4458
lradius 103.085
lwrist 37.3374
lhand -19.5675 8.82308
lfingers 7.12502
lthumb 6.75733 38.6953
rfemur -19.0737 6.79363 34.8982
rtibia 52.4927
rfoot -24.7339 -14.009
rtoes -9.39981
lfemur -32.3522 7.86974 -10.1025
ltibia 104.577
lfoot 4.92653 -9.75713
ltoes -4.20423
5
root 0.0888177 16.9684 -31.4283 4.30969 -0.25272 -4.85838
lowerback 18.8021 -0.101963 3.52727
upperback -1.19027 1.0961 3.59946
thorax -11.954 0.430631 1.67131
lowerneck -15.6253 -3.02522 -3.15125
upperneck 12.2514 -3.66314 1.77799
head 6.37495 -1.77116 0.71449
rclavicle -9.14409e-015 -2.8625e-014
rhumerus -44.1381 26.0308 -105.266
rradius 113.847
rwrist -22.3908
rhand -24.1951 45.7921
rfingers 7.12502
rthumb 2.28897 15.8246
lclavicle -9.14409e-015 -2.8625e-014
lhumerus -56.7121 -8.09279 100.428
lradius 104.072
lwrist 38.3612
lhand -18.6242 8.92531
lfingers 7.12502
lthumb 7.66787 38.7663
rfemur -17.3171 6.2051 35.1167
rtibia 51.8155
rfoot -24.7485 -14.6659
rtoes -10.969
lfemur -34.8987 7.30818 -10.4672
ltibia 103.969
lfoot 3.51643 -8.74566
ltoes -4.04579
6
root 0.0906297 17.0006 -30.9879 4.40601 0.515189 -4.93342
lowerback 18.748 0.337698 4.83238
upperback -0.0629973 1.79687 2.69714
thorax -10.5769 0.675949 -0.279919
lowerneck -21.507 -3.83809 -1.46268
upperneck 13.9215 -5.08236 1.6803
head 7.89275 -2.31802 0.144867
rclavicle -1.59028e-014 -5.92378e-014
rhumerus -39.6414 24.7954 -104.08
rradius 115.034
rwrist -22.4491
rhand -24.2197 49.8813
rfingers 7.12502
rthumb 2.26515 19.9136
lclavicle -1.59028e-014 -5.92378e-014
lhumerus -55.3286 -11.4819 99.5933
lradius 104.426
lwrist 40.2346
lhand -17.84 8.64555
lfingers 7.12502
lthumb 8.42472 38.4575
rfemur -15.5976 5.71341 35.4613
rtibia 51.0756
rfoot -24.1186 -15.1265
rtoes -12.8091
lfemur -37.0959 6.93777 -10.783
ltibia 102.868
lfoot 2.49684 -7.97366
ltoes -1.40611
7
root 0.0928582 17.0261 -30.5403 4.46594 0.852569 -5.08684
lowerback 19.1983 0.392787 4.85492
upperback -0.526415 1.96005 2.91243
thorax -11.3587 0.737602 -0.102511
lowerneck -20.5643 -3.98487 -1.84501
upperneck 13.7798 -5.1912 1.73295
head 7.7016 -2.3951 0.227167
rclavicle 8.64713e-015 1.27222e-014
rhumerus -40.2182 25.5739 -104.429
rradius 116.285
rwrist -21.3048
rhand -24.1393 52.8951
rfingers 7.12502
rthumb 2.34286 22.9283
lclavicle 8.64713e-015 1.27222e-014
lhumerus -57.4069 -11.0011 99.929
lradius 105.213
lwrist 41.4002
lhand -17.7959 8.19092
lfingers 7.12502
lthumb 8.46733 38.0012
rfemur -13.5322 5.68579 35.8379
rtibia 50.2679
rfoot -23.1361 -15.4725
rtoes -14.4597
lfemur -38.9658 6.8547 -11.0708
ltibia 101.392
lfoot -0.425334 -6.5236
ltoes -10.0973
8
root 0.109252 17.0613 -30.0649 4.79615 1.02448 -5.12201
lowerback 18.7631 0.495988 5.02418
upperback -0.795053 2.12451 2.95831
thorax -11.4055 0.803325 -0.186891
lowerneck -20.0642 -4.06798 -2.18274
upperneck 13.8041 -5.25685 1.93862
head 7.64268 -2.42828 0.349254
rclavicle 1.38155e-014 -1.27222e-014
rhumerus -40.4839 26.2859 -104.794
rradius 117.065
rwrist -19.3187
rhand -24.1009 56.6464
rfingers 7.12502
rthumb 2.37992 26.6799
lclavicle 1.38155e-014 -1.27222e-014
lhumerus -59.083 -10.5198 99.9715
lradius 105.902
lwrist 42.2621
lhand -17.6098 8.4202
lfingers 7.12502
lthumb 8.64688 38.2231
rfemur -11.4902 6.0192 35.9271
rtibia 49.2227
rfoot -22.427 -14.9352
rtoes -15.5186
lfemur -40.8117 6.70746 -11.6405
ltibia 99.4105
lfoot -4.56502 -4.01767
ltoes -24.7717
9
root 0.129231 17.1178 -29.5784 5.07192 1.17687 -5.08871
lowerback 17.5056 0.656754 5.60432
upperback -0.432053 2.30784 2.66734
thorax -10.2355 0.881226 -0.863665
lowerneck -20.4125 -4.25618 -2.23463
upperneck 13.6703 -5.55774 2.32454
head 7.67631 -2.53276 0.442022
rclavicle 1.72943e-014 2.22639e-014
rhumerus -38.7208 25.878 -104.077
rradius 118.254
rwrist -22.24
rhand -20.828 68.8251
rfingers 7.12502
rthumb 5.54039 38.9175
lclavicle 1.72943e-014 2.22639e-014
lhumerus -59.4268 -10.6761 99.5109
lradius 106.17
lwrist 42.7973
lhand -17.231 8.56861
lfingers 7.12502
lthumb 9.01248 38.3561
rfemur -9.48369 6.34372 35.9199
rtibia 48.0633
rfoot -21.7644 -13.5464
rtoes -16.0059
lfemur -42.2805 6.38436 -12.302
ltibia 96.9161
lfoot 1.72138 -6.79978
ltoes 3.82526
10
root 0.147907 17.2282 -29.0569 5.3139 1.01728 -5.05441
lowerback 17.6272 1.04233 5.30264
upperback -1.00425 2.82909 2.9063
thorax -10.9472 1.12649 -0.570634
lowerneck -20.1336 -4.43442 -2.46003
upperneck 14.2064 -5.68957 1.96395
head 7.80608 -2.6426 0.34151
rclavicle -5.96354e-016 -1.03368e-014
rhumerus -39.6757 26.4555 -104.338
rradius 118.995
rwrist -19.5551
rhand -25.6664 45.0783
rfingers 7.12502
rthumb 0.867971 15.1004
lclavicle -5.96354e-016 -1.03368e-014
lhumerus -61.2902 -9.91397 100.042
lradius 106.453
lwrist 42.8298
lhand -17.1038 8.42906
lfingers 7.12502
lthumb 9.13517 38.2112
rfemur -7.28777 6.67154 35.8199
rtibia 46.6371
rfoot -20.1262 -12.1312
rtoes -18.161
lfemur -42.8821 6.27794 -12.9412
ltibia 93.6747
lfoot -5.215 -4.54276
ltoes -18.6476
11
root 0.162767 17.3295 -28.5498 5.56079 1.40672 -4.92348
lowerback 15.4205 1.28386 5.39327
upperback -0.251838 2.94656 2.93601
thorax -8.84138 1.24644 -0.555527
lowerneck -19.6222 -4.62896 -2.50106
upperneck 13.0703 -5.92721 1.97665
head 7.3498 -2.77096 0.346121
rclavicle -5.86415e-015 -6.36111e-015
rhumerus -38.2803 26.8381 -103.609
rradius 119.605
rwrist -18.4384
rhand -26.7844 34.3609
rfingers 7.12502
rthumb -0.211896 4.38123
lclavicle -5.86415e-015 -6.36111e-015
lhumerus -61.0487 -9.72382 99.8761
lradius 106.52
lwrist 43.0555
lhand -16.9288 8.33311
lfingers 7.12502
lthumb 9.30402 38.1078
rfemur -5.357 6.5966 35.6856
rtibia 45.229
rfoot -17.8254 -10.9008
rtoes -18.3756
lfemur -43.6567 5.55024 -13.5993
ltibia 90.1716
lfoot -4.77266 -4.8376
ltoes -13.0256
